<svg width="30" height="30" viewBox="0 0 30 30" fill="none" xmlns="http://www.w3.org/2000/svg">
<g id="quotation-right-mark-svgrepo-com 1">
<g clip-path="url(#clip0_652_99)">
<g id="Group">
<path id="Vector" d="M12.9168 27.711V22.7054C12.9168 22.0262 12.3663 21.4761 11.6875 21.4761C9.26544 21.4761 7.94779 18.992 7.76491 14.0885L11.6875 14.0885C12.3662 14.0885 12.9168 13.5376 12.9168 12.8592V2.28964C12.9168 1.61071 12.3663 1.0606 11.6875 1.0606L1.22938 1.0606C0.550795 1.0606 1.90735e-06 1.61131 1.90735e-06 2.28964V12.8593C1.90735e-06 15.2097 0.237284 17.3666 0.703081 19.2714C1.1816 21.2242 1.91614 22.9314 2.8858 24.3461C3.88306 25.8 5.13161 26.9409 6.59457 27.7354C8.06863 28.535 9.78211 28.9408 11.688 28.9408C12.3662 28.9403 12.9168 28.3897 12.9168 27.711ZM28.771 21.4756C29.4496 21.4756 30 22.0262 30 22.7044V27.7111C30 28.3897 29.4496 28.9398 28.771 28.9398C26.866 28.9398 25.1517 28.5339 23.6785 27.7344C22.2148 26.94 20.9664 25.8001 19.9693 24.3452C18.999 22.9304 18.2645 21.2231 17.786 19.2695C17.32 17.3646 17.0832 15.2076 17.0832 12.8583V2.28861C17.0832 1.60968 17.6341 1.05957 18.3125 1.05957L28.771 1.05957C29.4496 1.05957 30 1.61019 30 2.28861V12.8583C30 13.5371 29.4496 14.0876 28.771 14.0876H24.9035C25.0841 18.9915 26.3828 21.4756 28.771 21.4756Z" fill="#2A5C97"/>
</g>
</g>
</g>
<defs>
<clipPath id="clip0_652_99">
<rect width="30" height="30" transform="matrix(-1 0 0 1 30 0)" fill="white"/>
</clipPath>
</defs>
</svg>
