<svg width="30" height="30" viewBox="0 0 30 30" fill="none" xmlns="http://www.w3.org/2000/svg">
<g id="quotation-right-mark-svgrepo-com 2" clip-path="url(#clip0_652_102)">
<g id="Group">
<path id="Vector" d="M17.0832 27.711V22.7054C17.0832 22.0262 17.6337 21.4761 18.3125 21.4761C20.7346 21.4761 22.0522 18.992 22.2351 14.0885H18.3125C17.6338 14.0885 17.0832 13.5376 17.0832 12.8592V2.28964C17.0832 1.61071 17.6337 1.0606 18.3125 1.0606H28.7706C29.4492 1.0606 30 1.61131 30 2.28964V12.8593C30 15.2097 29.7627 17.3666 29.2969 19.2714C28.8184 21.2242 28.0839 22.9314 27.1142 24.3461C26.1169 25.8 24.8684 26.9409 23.4054 27.7354C21.9314 28.535 20.2179 28.9408 18.312 28.9408C17.6338 28.9403 17.0832 28.3897 17.0832 27.711ZM1.22904 21.4756C0.550364 21.4756 0 22.0262 0 22.7044L0 27.7111C0 28.3897 0.550364 28.9398 1.22904 28.9398C3.134 28.9398 4.84834 28.5339 6.32145 27.7344C7.78519 26.94 9.03357 25.8001 10.0307 24.3452C11.001 22.9304 11.7355 21.2231 12.214 19.2695C12.68 17.3646 12.9168 15.2076 12.9168 12.8583V2.28861C12.9168 1.60968 12.3659 1.05957 11.6875 1.05957H1.22904C0.550364 1.05957 0 1.61019 0 2.28861L0 12.8583C0 13.5371 0.550364 14.0876 1.22904 14.0876H5.09654C4.91589 18.9915 3.61724 21.4756 1.22904 21.4756Z" fill="#2A5C97"/>
</g>
</g>
<defs>
<clipPath id="clip0_652_102">
<rect width="30" height="30" fill="white"/>
</clipPath>
</defs>
</svg>
